# xmcd CD database file
#
# Track frame offsets:
#	150
#	21683
#	40551
#	62103
#	81088
#	103358
#	124258
#	152429
#	172300
#	194340
#	213134
#	235380
#
# Disc length: 3416 seconds
#
# Revision: 1
# Processed by: cddbd v1.5.2PL0 Copyright (c) Steve Scherf et al.
# Submitted via: CDex 1.50
#
DISCID=a90d560c
DTITLE=La Sabrosura - Lo mejor
DYEAR=1900
DGENRE=Salsa
TTITLE0=01 - Tu Amigo O Tu Amante - Sabrosura
TTITLE1=02 - Vas A Perdonarme - Sabrosura
TTITLE2=03 - Cuando Aparezca El Amor - Sabrosura
TTITLE3=04 - Buscalo A El - Sabrosura
TTITLE4=05 - Quedate Conmigo - Sabrosura
TTITLE5=06 - No Existe Mas Amor - Sabrosura
TTITLE6=07 - Tu Amigo O Tu Amante Remix - Sabrosura
TTITLE7=08 - Vuelvo A Ti - Sabrosura
TTITLE8=09 - Romantico Y Apasionado - Sabrosura
TTITLE9=10 - El Hombre Aquel - Sabrosura
TTITLE10=11 - Tu Piel - Sabrosura
TTITLE11=12 - Me Toco Perderte - Sabrosura
EXTD=
EXTT0=
EXTT1=
EXTT2=
EXTT3=
EXTT4=
EXTT5=
EXTT6=
EXTT7=
EXTT8=
EXTT9=
EXTT10=
EXTT11=
PLAYORDER=
